Coordinates
version=1
nRows=37
nColumns=38
inDegrees=no

Units are S.I. units (second, meters, Newtons, ...)
If the header above contains a line with 'inDegrees', this indicates whether rotational values are in degrees (yes) or radians (no).

endheader
time	pelvis_tilt	pelvis_list	pelvis_rotation	pelvis_tx	pelvis_ty	pelvis_tz	hip_flexion_r	hip_adduction_r	hip_rotation_r	knee_angle_r	ankle_angle_r	subtalar_angle_r	mtp_angle_r	hip_flexion_l	hip_adduction_l	hip_rotation_l	knee_angle_l	ankle_angle_l	subtalar_angle_l	mtp_angle_l	lumbar_extension	lumbar_bending	lumbar_rotation	arm_flex_r	arm_add_r	arm_rot_r	elbow_flex_r	pro_sup_r	wrist_flex_r	wrist_dev_r	arm_flex_l	arm_add_l	arm_rot_l	elbow_flex_l	pro_sup_l	wrist_flex_l	wrist_dev_l
0.47	-0.236699	1.35123	-1.42977	0.724405	1.52559	1.01546	-0.49693	0.0565409	0.0772763	0.0299107	-0.11725	0	0	0.248281	-0.240977	-0.610057	0.723621	0.028889	0	0	-0.502888	0.0654395	0.298719	-0.383481	-0.385227	0.168627	0.787428	0.941244	0	0	0.182501	-0.485384	1.4825	0.47703	0.854123	0	0
0.48	-0.239771	1.35031	-1.43763	0.723697	1.5136	1.01426	-0.492146	0.0508983	0.0644992	0.0710701	-0.099411	0	0	0.247494	-0.239164	-0.59726	0.726766	0.0256841	0	0	-0.502138	0.0580614	0.308335	-0.382782	-0.38271	0.17059	0.784508	0.939304	0	0	0.183521	-0.484907	1.48115	0.465302	0.851871	0	0
0.49	-0.238108	1.34993	-1.44976	0.723192	1.50134	1.01326	-0.484689	0.0434749	0.0510403	0.118048	-0.0744737	0	0	0.245295	-0.234459	-0.581058	0.729892	0.0191824	0	0	-0.499848	0.0498457	0.31613	-0.380588	-0.380089	0.174985	0.779158	0.936625	0	0	0.184156	-0.485166	1.47961	0.453941	0.850063	0	0
0.5	-0.237708	1.35017	-1.46001	0.722897	1.48883	1.01231	-0.475197	0.035664	0.039648	0.167327	-0.0517844	0	0	0.242639	-0.229023	-0.561621	0.73472	0.0109017	0	0	-0.495986	0.0423596	0.323188	-0.378429	-0.377598	0.180275	0.773046	0.933283	0	0	0.184932	-0.486101	1.47858	0.443283	0.848944	0	0
0.51	-0.237312	1.35176	-1.4698	0.722762	1.47596	1.01124	-0.463083	0.0271262	0.0291705	0.21782	-0.0325347	0	0	0.239928	-0.223124	-0.541941	0.741057	0.00128718	0	0	-0.489475	0.0352894	0.329577	-0.376627	-0.375003	0.186422	0.765925	0.930128	0	0	0.185464	-0.488473	1.47706	0.434633	0.84881	0	0
0.52	-0.234201	1.35383	-1.48176	0.722762	1.46274	1.01018	-0.44946	0.0176249	0.020858	0.269983	-0.0182902	0	0	0.236202	-0.217474	-0.527744	0.748454	-0.00987444	0	0	-0.481255	0.0281171	0.334687	-0.374627	-0.372151	0.193783	0.757593	0.928043	0	0	0.185956	-0.491576	1.4774	0.42654	0.850453	0	0
0.53	-0.220698	1.35537	-1.50303	0.722974	1.44929	1.00941	-0.436234	0.00585933	0.0142499	0.323344	-0.00864522	0	0	0.231223	-0.211822	-0.52567	0.75593	-0.0243525	0	0	-0.472976	0.0193838	0.337446	-0.372081	-0.36874	0.201474	0.748392	0.926215	0	0	0.186875	-0.495781	1.47776	0.419846	0.85097	0	0
0.54	-0.1934	1.35633	-1.53582	0.723464	1.43578	1.00917	-0.42281	-0.00796495	0.0102243	0.378311	-0.00384297	0	0	0.226644	-0.20516	-0.533192	0.762315	-0.0434974	0	0	-0.465132	0.00849312	0.33671	-0.367913	-0.364215	0.209312	0.737564	0.923846	0	0	0.18833	-0.500892	1.47724	0.413601	0.849378	0	0
0.55	-0.156152	1.35961	-1.57419	0.724258	1.42227	1.00919	-0.404927	-0.0215398	0.0086273	0.435829	-0.00394737	0	0	0.227218	-0.19579	-0.532267	0.768133	-0.064837	0	0	-0.454317	-0.0033119	0.331324	-0.361267	-0.358021	0.219447	0.723166	0.920752	0	0	0.190701	-0.506902	1.47694	0.407244	0.846628	0	0
0.56	-0.114003	1.36548	-1.61218	0.725547	1.40879	1.00927	-0.382973	-0.03309	0.00845505	0.492703	-0.0140143	0	0	0.232002	-0.182294	-0.512065	0.772723	-0.0779183	0	0	-0.440519	-0.0137025	0.321797	-0.354369	-0.350751	0.229141	0.707734	0.916763	0	0	0.194653	-0.513109	1.4779	0.400901	0.842977	0	0
0.57	-0.0673516	1.37224	-1.6507	0.727288	1.39535	1.00943	-0.358144	-0.0431055	0.00877248	0.549683	-0.0341914	0	0	0.238053	-0.165884	-0.484317	0.777591	-0.0829771	0	0	-0.425817	-0.0225394	0.309845	-0.348539	-0.343417	0.237729	0.693211	0.912108	0	0	0.2008	-0.51945	1.48111	0.395667	0.839586	0	0
0.58	-0.0198466	1.37797	-1.68746	0.729317	1.38196	1.0098	-0.332508	-0.0511943	0.0110037	0.6058	-0.0649897	0	0	0.242644	-0.150047	-0.460825	0.782365	-0.0891027	0	0	-0.412457	-0.0296733	0.296717	-0.344019	-0.336714	0.245454	0.68051	0.907142	0	0	0.209196	-0.526222	1.48619	0.392652	0.836509	0	0
0.59	0.0217639	1.38152	-1.71685	0.731431	1.36855	1.01041	-0.309163	-0.0563081	0.0163425	0.656294	-0.109822	0	0	0.243038	-0.136809	-0.444603	0.785885	-0.0980838	0	0	-0.401589	-0.0346923	0.28335	-0.340845	-0.331033	0.252818	0.670036	0.901607	0	0	0.219767	-0.53481	1.4931	0.39437	0.8328	0	0
0.6	0.0570859	1.38407	-1.74004	0.733567	1.35528	1.01112	-0.285901	-0.059069	0.0242831	0.703637	-0.162433	0	0	0.239357	-0.125736	-0.435458	0.787779	-0.104991	0	0	-0.392409	-0.0381239	0.271275	-0.339318	-0.326459	0.258346	0.662284	0.896756	0	0	0.232793	-0.544205	1.50174	0.399796	0.829564	0	0
0.61	0.090424	1.38745	-1.76272	0.735621	1.34217	1.01173	-0.259712	-0.06034	0.0349993	0.751858	-0.217039	0	0	0.23347	-0.115645	-0.431625	0.788143	-0.105837	0	0	-0.382434	-0.0411155	0.260973	-0.338469	-0.322642	0.263158	0.655418	0.893568	0	0	0.247172	-0.553637	1.51086	0.407331	0.826864	0	0
0.62	0.125279	1.39173	-1.78774	0.737532	1.32949	1.01217	-0.229596	-0.0603462	0.0454628	0.803557	-0.270377	0	0	0.22721	-0.10592	-0.429547	0.787328	-0.103205	0	0	-0.372124	-0.0444103	0.251104	-0.337814	-0.319438	0.266666	0.650395	0.892799	0	0	0.26315	-0.564099	1.51945	0.417605	0.824696	0	0
0.63	0.162076	1.39591	-1.81521	0.739262	1.31718	1.01256	-0.196816	-0.0593214	0.0547385	0.858223	-0.322543	0	0	0.220358	-0.0969582	-0.428938	0.785753	-0.1007	0	0	-0.362543	-0.0482997	0.241002	-0.337312	-0.316522	0.267834	0.647604	0.893985	0	0	0.280539	-0.5757	1.5276	0.430184	0.823498	0	0
0.64	0.200123	1.39906	-1.84469	0.740828	1.30515	1.013	-0.162431	-0.0582747	0.0630697	0.912725	-0.372331	0	0	0.212243	-0.0883924	-0.429415	0.78403	-0.0981305	0	0	-0.354707	-0.052815	0.231146	-0.337544	-0.314199	0.266621	0.647926	0.896649	0	0	0.299118	-0.58758	1.53413	0.443768	0.824321	0	0
0.65	0.23838	1.40083	-1.8758	0.742404	1.29356	1.01354	-0.127456	-0.0586774	0.0707341	0.96286	-0.418725	0	0	0.202798	-0.0795727	-0.430759	0.782621	-0.0942035	0	0	-0.349368	-0.0577286	0.222368	-0.339006	-0.313494	0.262966	0.652662	0.900807	0	0	0.319135	-0.598874	1.53886	0.458221	0.826769	0	0
0.66	0.270746	1.40144	-1.90168	0.74392	1.28226	1.01415	-0.0931733	-0.0584214	0.0765452	1.01038	-0.439472	0	0	0.192229	-0.0714181	-0.431679	0.782023	-0.0895521	0	0	-0.34631	-0.061835	0.214611	-0.341959	-0.314339	0.25735	0.661636	0.904355	0	0	0.340613	-0.609193	1.54327	0.472394	0.829881	0	0
0.67	0.291341	1.40045	-1.91555	0.745407	1.27109	1.01502	-0.0604611	-0.056881	0.0790556	1.05629	-0.438776	0	0	0.178951	-0.0654406	-0.433941	0.781059	-0.0855134	0	0	-0.34596	-0.0643735	0.206986	-0.345162	-0.315959	0.251073	0.67194	0.908682	0	0	0.363224	-0.618831	1.54782	0.486605	0.834908	0	0
0.68	0.297106	1.39795	-1.91442	0.746836	1.26008	1.01622	-0.0303331	-0.0533436	0.0789299	1.09836	-0.421974	0	0	0.162545	-0.0618154	-0.436347	0.778818	-0.0816388	0	0	-0.348512	-0.0647472	0.199863	-0.348141	-0.318039	0.243971	0.682434	0.913493	0	0	0.386804	-0.626817	1.55171	0.499674	0.841151	0	0
0.69	0.291978	1.39478	-1.90212	0.748199	1.24914	1.01768	-0.00286216	-0.0487925	0.0757688	1.13339	-0.403267	0	0	0.143957	-0.0602019	-0.438119	0.77471	-0.0788022	0	0	-0.352261	-0.0632256	0.192917	-0.349978	-0.320399	0.238642	0.690894	0.917624	0	0	0.41068	-0.632689	1.5565	0.509877	0.846466	0	0
0.7	0.279668	1.39196	-1.88212	0.749532	1.23833	1.01925	0.023756	-0.0437914	0.0700373	1.16186	-0.384187	0	0	0.125116	-0.0602412	-0.437841	0.768722	-0.0771929	0	0	-0.35621	-0.060185	0.186075	-0.350771	-0.322584	0.234129	0.697185	0.921853	0	0	0.435045	-0.637518	1.5614	0.519248	0.852379	0	0
0.71	0.264274	1.39039	-1.8581	0.750912	1.22775	1.02072	0.051757	-0.0386358	0.0630501	1.18637	-0.365603	0	0	0.108581	-0.0610514	-0.4342	0.762126	-0.0768541	0	0	-0.359457	-0.0559401	0.179048	-0.350555	-0.324868	0.231131	0.701602	0.926457	0	0	0.46025	-0.641943	1.56631	0.529245	0.859548	0	0
0.72	0.248337	1.39079	-1.83382	0.752148	1.21718	1.02202	0.0818346	-0.0332426	0.0565896	1.20721	-0.346074	0	0	0.0945548	-0.0622781	-0.428537	0.754738	-0.0767982	0	0	-0.360412	-0.0513966	0.172734	-0.349126	-0.326441	0.230057	0.702721	0.931766	0	0	0.48463	-0.645949	1.56922	0.538899	0.869955	0	0
0.73	0.232894	1.39199	-1.80993	0.753381	1.20672	1.02332	0.112098	-0.0286506	0.0499287	1.22315	-0.327304	0	0	0.0813953	-0.0638989	-0.423864	0.74664	-0.0775465	0	0	-0.360162	-0.0466703	0.165886	-0.346382	-0.32783	0.230649	0.701479	0.936709	0	0	0.507395	-0.648527	1.56959	0.546146	0.881243	0	0
0.74	0.216542	1.39348	-1.78467	0.754691	1.19634	1.02459	0.141884	-0.0253642	0.0412887	1.23492	-0.307883	0	0	0.0686603	-0.0659806	-0.419856	0.739099	-0.0782017	0	0	-0.359493	-0.0414768	0.158742	-0.343351	-0.329349	0.231834	0.69954	0.940893	0	0	0.529858	-0.650103	1.56975	0.552793	0.892188	0	0
0.75	0.199622	1.39543	-1.75829	0.756082	1.18607	1.02574	0.171163	-0.0232342	0.0306344	1.242	-0.288193	0	0	0.0564741	-0.0686398	-0.417473	0.73241	-0.0781279	0	0	-0.358397	-0.0358668	0.151496	-0.340499	-0.331084	0.233543	0.697434	0.944702	0	0	0.55241	-0.65082	1.57005	0.559294	0.902373	0	0
0.76	0.180723	1.39753	-1.72975	0.75746	1.17586	1.02679	0.198909	-0.02142	0.0190716	1.24367	-0.268943	0	0	0.044417	-0.0718327	-0.415964	0.726369	-0.0769374	0	0	-0.357074	-0.029851	0.144487	-0.338001	-0.332722	0.234993	0.695347	0.947848	0	0	0.574795	-0.650702	1.57035	0.565369	0.911982	0	0
0.77	0.160266	1.39963	-1.69909	0.758831	1.16562	1.02778	0.224645	-0.0199865	0.00653724	1.23964	-0.247602	0	0	0.0321487	-0.0752607	-0.413189	0.719795	-0.074911	0	0	-0.355497	-0.0235173	0.137211	-0.335398	-0.333871	0.236555	0.692267	0.951	0	0	0.596644	-0.649881	1.57004	0.570908	0.922939	0	0
0.78	0.138102	1.40164	-1.66512	0.76035	1.15537	1.02873	0.248249	-0.0194925	-0.00836028	1.23019	-0.229074	0	0	0.0201675	-0.0791259	-0.408658	0.712551	-0.0736925	0	0	-0.35389	-0.0164004	0.128681	-0.33255	-0.334778	0.238769	0.688139	0.954249	0	0	0.618253	-0.647999	1.57055	0.575479	0.93209	0	0
0.79	0.115824	1.40255	-1.63112	0.761905	1.14529	1.02963	0.269593	-0.0195536	-0.0230947	1.21721	-0.20547	0	0	0.00737432	-0.0827147	-0.402625	0.70418	-0.0728901	0	0	-0.35367	-0.00921439	0.120227	-0.329847	-0.335998	0.240425	0.684804	0.958019	0	0	0.639846	-0.645831	1.57061	0.580215	0.944304	0	0
0.8	0.0928526	1.40274	-1.59817	0.763288	1.13517	1.03042	0.28939	-0.0188637	-0.0354425	1.20131	-0.179325	0	0	-0.00635602	-0.0869425	-0.398598	0.695182	-0.0730807	0	0	-0.354171	-0.00233704	0.113636	-0.327963	-0.337422	0.241268	0.682634	0.9611	0	0	0.661067	-0.643333	1.5708	0.585035	0.958681	0	0
0.81	0.0682703	1.40276	-1.56397	0.764571	1.12507	1.03111	0.308158	-0.0176082	-0.047046	1.18204	-0.151853	0	0	-0.0196121	-0.0917318	-0.394203	0.686742	-0.0734592	0	0	-0.354839	0.00487984	0.107456	-0.326436	-0.338894	0.241701	0.681046	0.964471	0	0	0.681653	-0.640178	1.5708	0.58925	0.975171	0	0
0.82	0.0426189	1.40299	-1.52921	0.765746	1.11498	1.03165	0.326264	-0.0157578	-0.0573001	1.15897	-0.12795	0	0	-0.0321388	-0.0970746	-0.390223	0.679429	-0.0732656	0	0	-0.355224	0.0122244	0.101424	-0.324907	-0.34042	0.242068	0.679835	0.968103	0	0	0.701852	-0.637093	1.5708	0.594168	0.986172	0	0
0.83	0.0168387	1.40319	-1.49512	0.766814	1.10484	1.03205	0.341885	-0.0131043	-0.0647747	1.13129	-0.103514	0	0	-0.0447943	-0.102796	-0.387686	0.672799	-0.0720687	0	0	-0.355366	0.0194022	0.0955797	-0.323436	-0.34188	0.24216	0.679007	0.971997	0	0	0.721268	-0.634566	1.5708	0.599917	0.994936	0	0
